<svg width="780" height="720" viewBox="0 0 780 720" fill="none" xmlns="http://www.w3.org/2000/svg">
  <rect width="780" height="720" rx="42" fill="#E9E3D7"/>
  <rect x="186" y="46" width="408" height="628" rx="46" fill="#1C1C1C"/>
  <rect x="202" y="66" width="376" height="590" rx="36" fill="#F6F2EA"/>
  <rect x="229" y="103" width="322" height="74" rx="18" fill="#166A5B"/>
  <text x="257" y="149" fill="#F8F3EA" font-family="Arial, sans-serif" font-size="34" font-weight="700">Brum Dashboard</text>

  <rect x="229" y="198" width="322" height="122" rx="18" fill="white"/>
  <rect x="249" y="223" width="12" height="70" rx="6" fill="#FF7C45"/>
  <text x="273" y="248" fill="#1F1F1F" font-family="Arial, sans-serif" font-size="24" font-weight="700">ID Card</text>
  <text x="273" y="281" fill="#69635A" font-family="Arial, sans-serif" font-size="20">12 days left</text>
  <text x="466" y="281" fill="#166A5B" font-family="Arial, sans-serif" font-size="18" font-weight="700">Renew</text>

  <rect x="229" y="338" width="322" height="122" rx="18" fill="white"/>
  <rect x="249" y="363" width="12" height="70" rx="6" fill="#166A5B"/>
  <text x="273" y="388" fill="#1F1F1F" font-family="Arial, sans-serif" font-size="24" font-weight="700">Insurance</text>
  <text x="273" y="421" fill="#69635A" font-family="Arial, sans-serif" font-size="20">34 days left</text>
  <text x="466" y="421" fill="#166A5B" font-family="Arial, sans-serif" font-size="18" font-weight="700">Details</text>

  <rect x="229" y="478" width="322" height="122" rx="18" fill="white"/>
  <rect x="249" y="503" width="12" height="70" rx="6" fill="#F4B860"/>
  <text x="273" y="528" fill="#1F1F1F" font-family="Arial, sans-serif" font-size="24" font-weight="700">Passport</text>
  <text x="273" y="561" fill="#69635A" font-family="Arial, sans-serif" font-size="20">65 days left</text>
  <text x="466" y="561" fill="#166A5B" font-family="Arial, sans-serif" font-size="18" font-weight="700">View</text>

  <circle cx="112" cy="180" r="58" fill="#CDE9E3"/>
  <circle cx="674" cy="550" r="66" fill="#FFD9C9"/>
</svg>
